<mxfile host="app.diagrams.net" modified="2024-07-12T10:50:19.155Z" agent="Mozilla/5.0 (Windows NT 10.0; Win64; x64; rv:128.0) Gecko/20100101 Firefox/128.0" etag="RubRQBmT-1SH9k1Eb5UT" version="24.6.5" type="github">
  <diagram name="Page-1" id="6vfHwnWsYTbpfUL1M72W">
    <mxGraphModel dx="1195" dy="728" grid="1" gridSize="10" guides="1" tooltips="1" connect="1" arrows="1" fold="1" page="1" pageScale="1" pageWidth="850" pageHeight="1100" math="0" shadow="0">
      <root>
        <mxCell id="0" />
        <mxCell id="1" parent="0" />
        <mxCell id="f3Y3oxNFWGsVKU8oALe4-31" value="class" style="swimlane;fontStyle=1;align=center;verticalAlign=top;childLayout=stackLayout;horizontal=1;startSize=26;horizontalStack=0;resizeParent=1;resizeParentMax=0;resizeLast=0;collapsible=1;marginBottom=0;whiteSpace=wrap;html=1;" vertex="1" parent="1">
          <mxGeometry x="310" y="20" width="210" height="206" as="geometry">
            <mxRectangle x="360" y="20" width="70" height="30" as="alternateBounds" />
          </mxGeometry>
        </mxCell>
        <mxCell id="f3Y3oxNFWGsVKU8oALe4-32" value="&lt;div&gt;name : string&lt;/div&gt;" style="text;strokeColor=none;fillColor=none;align=left;verticalAlign=top;spacingLeft=4;spacingRight=4;overflow=hidden;rotatable=0;points=[[0,0.5],[1,0.5]];portConstraint=eastwest;whiteSpace=wrap;html=1;" vertex="1" parent="f3Y3oxNFWGsVKU8oALe4-31">
          <mxGeometry y="26" width="210" height="30" as="geometry" />
        </mxCell>
        <mxCell id="f3Y3oxNFWGsVKU8oALe4-42" value="&lt;div&gt;capacity: int&lt;/div&gt;" style="text;strokeColor=none;fillColor=none;align=left;verticalAlign=top;spacingLeft=4;spacingRight=4;overflow=hidden;rotatable=0;points=[[0,0.5],[1,0.5]];portConstraint=eastwest;whiteSpace=wrap;html=1;" vertex="1" parent="f3Y3oxNFWGsVKU8oALe4-31">
          <mxGeometry y="56" width="210" height="26" as="geometry" />
        </mxCell>
        <mxCell id="f3Y3oxNFWGsVKU8oALe4-44" value="&lt;div&gt;strength: int&lt;/div&gt;" style="text;strokeColor=none;fillColor=none;align=left;verticalAlign=top;spacingLeft=4;spacingRight=4;overflow=hidden;rotatable=0;points=[[0,0.5],[1,0.5]];portConstraint=eastwest;whiteSpace=wrap;html=1;" vertex="1" parent="f3Y3oxNFWGsVKU8oALe4-31">
          <mxGeometry y="82" width="210" height="30" as="geometry" />
        </mxCell>
        <mxCell id="f3Y3oxNFWGsVKU8oALe4-45" value="&lt;div&gt;grade: int&lt;/div&gt;" style="text;strokeColor=none;fillColor=none;align=left;verticalAlign=top;spacingLeft=4;spacingRight=4;overflow=hidden;rotatable=0;points=[[0,0.5],[1,0.5]];portConstraint=eastwest;whiteSpace=wrap;html=1;" vertex="1" parent="f3Y3oxNFWGsVKU8oALe4-31">
          <mxGeometry y="112" width="210" height="30" as="geometry" />
        </mxCell>
        <mxCell id="f3Y3oxNFWGsVKU8oALe4-43" value="&lt;div&gt;department: department ( fk )&lt;br&gt;&lt;/div&gt;" style="text;strokeColor=none;fillColor=none;align=left;verticalAlign=top;spacingLeft=4;spacingRight=4;overflow=hidden;rotatable=0;points=[[0,0.5],[1,0.5]];portConstraint=eastwest;whiteSpace=wrap;html=1;" vertex="1" parent="f3Y3oxNFWGsVKU8oALe4-31">
          <mxGeometry y="142" width="210" height="30" as="geometry" />
        </mxCell>
        <mxCell id="f3Y3oxNFWGsVKU8oALe4-33" value="" style="line;strokeWidth=1;fillColor=none;align=left;verticalAlign=middle;spacingTop=-1;spacingLeft=3;spacingRight=3;rotatable=0;labelPosition=right;points=[];portConstraint=eastwest;strokeColor=inherit;" vertex="1" parent="f3Y3oxNFWGsVKU8oALe4-31">
          <mxGeometry y="172" width="210" height="8" as="geometry" />
        </mxCell>
        <mxCell id="f3Y3oxNFWGsVKU8oALe4-34" value="+ method(type): type" style="text;strokeColor=none;fillColor=none;align=left;verticalAlign=top;spacingLeft=4;spacingRight=4;overflow=hidden;rotatable=0;points=[[0,0.5],[1,0.5]];portConstraint=eastwest;whiteSpace=wrap;html=1;" vertex="1" parent="f3Y3oxNFWGsVKU8oALe4-31">
          <mxGeometry y="180" width="210" height="26" as="geometry" />
        </mxCell>
        <mxCell id="f3Y3oxNFWGsVKU8oALe4-38" value="department" style="swimlane;fontStyle=0;childLayout=stackLayout;horizontal=1;startSize=26;fillColor=none;horizontalStack=0;resizeParent=1;resizeParentMax=0;resizeLast=0;collapsible=1;marginBottom=0;whiteSpace=wrap;html=1;" vertex="1" parent="1">
          <mxGeometry x="640" y="20" width="140" height="52" as="geometry" />
        </mxCell>
        <mxCell id="f3Y3oxNFWGsVKU8oALe4-39" value="name: string" style="text;strokeColor=none;fillColor=none;align=left;verticalAlign=top;spacingLeft=4;spacingRight=4;overflow=hidden;rotatable=0;points=[[0,0.5],[1,0.5]];portConstraint=eastwest;whiteSpace=wrap;html=1;" vertex="1" parent="f3Y3oxNFWGsVKU8oALe4-38">
          <mxGeometry y="26" width="140" height="26" as="geometry" />
        </mxCell>
      </root>
    </mxGraphModel>
  </diagram>
</mxfile>
